Coordinates
version=1
nRows=16
nColumns=36
inDegrees=yes

Units are S.I. units (second, meters, Newtons, ...)
If the header above contains a line with 'inDegrees', this indicates whether rotational values are in degrees (yes) or radians (no).

endheader
time	pelvis_tilt	pelvis_list	pelvis_rotation	pelvis_tx	pelvis_ty	pelvis_tz	hip_flexion_r	hip_adduction_r	hip_rotation_r	knee_angle_r	knee_angle_r_beta	ankle_angle_r	subtalar_angle_r	mtp_angle_r	hip_flexion_l	hip_adduction_l	hip_rotation_l	knee_angle_l	knee_angle_l_beta	ankle_angle_l	subtalar_angle_l	mtp_angle_l	lumbar_extension	lumbar_bending	lumbar_rotation	arm_flex_r	arm_add_r	arm_rot_r	elbow_flex_r	pro_sup_r	arm_flex_l	arm_add_l	arm_rot_l	elbow_flex_l	pro_sup_l
      0.00000000	      5.62862456	     -0.86277707	     -0.11807057	      0.82751210	      0.93134217	      0.70841543	     16.90756971	     -0.39256415	      0.90295091	      4.38892431	      0.07660118	      4.43268237	     -2.27380330	     -6.47395931	    -14.56506560	     -0.13855209	      1.40939761	     11.73001184	      0.20472733	     18.32338455	     -8.84880564	     -6.47395931	    -23.55015874	     -0.75166333	      0.29106001	      4.99795384	     -9.43275001	    -17.22792722	     21.92311418	     93.21956397	     24.76469091	    -13.02042955	     14.65221913	     19.83244334	     89.44270566
      0.01666670	      4.05177210	     -0.87153501	      0.80878865	      0.82519785	      0.92251384	      0.70963409	     18.83518154	     -0.36634808	      0.99677896	      4.21334700	      0.07353678	      5.08012683	     -0.74980369	     -6.61182092	    -12.77491072	     -0.58163236	      1.18408137	     12.54466243	      0.21894566	     18.62967929	     -9.56002569	     -6.61182092	    -22.83856623	     -0.78387576	     -0.31414440	      5.04166612	     -9.72299167	    -18.09879603	     20.23614876	     91.02071041	     25.69504858	    -13.13896322	     15.68225149	     20.86825644	     88.52485722
      0.03333330	      1.88581303	     -0.96434591	      0.86305266	      0.82575018	      0.91557949	      0.71186441	     20.84629987	     -0.30216161	      2.62636043	      3.18178617	      0.05553264	      4.02072898	     -0.21398314	     -6.63804587	    -10.76545586	     -1.00066311	      2.36938215	     13.55238911	      0.23653381	     20.76198915	     -8.65099533	     -6.63804587	    -20.34874836	     -0.37409472	     -0.73364013	      4.78810734	    -10.05691789	    -18.27809964	     19.01448865	     90.94381063	     25.61855754	    -13.14142977	     16.17406447	     21.22508711	     88.81375871
      0.05000000	      1.32089933	     -1.43669916	      1.20741309	      0.82866953	      0.91310429	      0.71591467	     21.18926162	      0.25409477	      3.56575301	      4.05840692	      0.07083256	      3.60759453	      0.02441424	     -6.64959791	    -10.50087783	     -1.87403187	      3.04775618	     14.40615348	      0.25143481	     21.78602196	     -7.93622375	     -6.64959791	    -19.72320467	      0.42943460	     -0.99277322	      4.55256523	    -10.48607858	    -18.32677528	     18.32983542	     90.86540460	     26.02168894	    -13.09964388	     16.34685036	     21.69514951	     88.91405989
      0.06666670	      0.68486961	     -1.69410319	      0.89731651	      0.83394704	      0.91275628	      0.72182283	     21.55421154	      0.89596756	      4.53914241	      5.62854348	      0.09823662	      1.69484677	     -0.07591631	     -6.69155833	    -10.52061235	     -2.53087962	      2.23043934	     15.24444189	      0.26606570	     21.97629674	     -6.37919938	     -6.69155833	    -18.70177290	      0.74383199	     -1.18028329	      4.54246517	    -10.64383051	    -18.02518003	     17.13963058	     90.43241433	     25.67870080	    -13.42493865	     16.46825646	     22.49702494	     88.86532042
      0.08333330	      0.36959677	     -1.96904785	      0.50204000	      0.83920964	      0.91413036	      0.72593654	     21.48240636	      1.48079547	      4.59677278	      7.43224893	      0.12971721	     -0.29152484	      0.11635451	     -6.80164880	    -10.81253743	     -3.19334685	      1.24779957	     16.45622294	      0.28721527	     21.12287686	     -5.58430082	     -6.80164880	    -18.03988974	      1.23747295	     -1.93260126	      4.98716117	    -10.90839710	    -15.33801499	     16.10253748	     88.43823475	     24.57341505	    -13.89077202	     15.29489531	     23.45118203	     87.60119886
      0.10000000	      0.10465344	     -2.30527403	     -0.22590191	      0.84333171	      0.91618876	      0.72809276	     21.32618773	      2.16863111	      4.64552319	      9.18855549	      0.16037055	     -1.85265405	      0.29892634	     -6.90880725	    -10.90657749	     -3.86186653	     -0.03988047	     18.24608395	      0.31845424	     19.95949616	     -5.12326161	     -6.90880725	    -17.54512243	      1.75387510	     -2.03871990	      4.98473205	    -11.14646408	    -13.60343664	     16.16682046	     86.36733083	     23.53807349	    -13.98208190	     14.01307230	     24.02582606	     86.21844432
      0.11666670	     -0.27038246	     -2.81481648	     -1.23485770	      0.84759273	      0.91651858	      0.73015773	     21.30628959	      3.07917522	      4.63377211	     10.88111940	      0.18991136	     -2.69197778	      0.45688038	     -6.93296830	    -10.64644957	     -4.61225929	     -1.35955525	     20.41111378	      0.35624114	     18.58602054	     -5.19319412	     -6.93296830	    -16.87485373	      2.48104053	     -1.48603922	      4.74716274	    -11.52418338	    -12.91858350	     16.40485056	     86.24637390	     22.49281146	    -13.71412007	     12.99180399	     24.35581402	     86.06939172
      0.13333330	     -0.33845347	     -3.49211819	     -2.27147564	      0.85151846	      0.91675339	      0.73342702	     20.82788769	      4.20104792	      5.05606140	     12.23466666	      0.21353522	     -2.95735104	      0.10321683	     -6.96897676	    -10.57460756	     -5.40884601	     -2.20154662	     22.71133205	      0.39638752	     17.07458561	     -5.99115402	     -6.96897676	    -16.50184298	      3.48420986	     -1.14307118	      4.55397359	    -11.99258940	    -11.69496202	     16.89107930	     85.98180090	     21.13185233	    -13.27830296	     10.70749640	     24.77168964	     85.58223794
      0.15000000	     -0.22552690	     -4.26256415	     -3.11307512	      0.85445267	      0.91742856	      0.73709282	     19.98411063	      5.39185444	      5.34256179	     13.20012134	      0.23038558	     -2.49816050	     -0.09817553	     -6.97286310	    -10.52888092	     -6.34434672	     -2.83509907	     25.12441731	      0.43850380	     15.35771622	     -6.37699877	     -6.97286310	    -16.34753553	      4.51903763	     -0.64304649	      4.51596602	    -12.31349037	    -11.57334639	     16.94526154	     85.94430543	     20.15573824	    -12.96102311	     10.46122086	     24.64431419	     85.51785634
      0.16666670	     -0.51688628	     -4.98733826	     -3.86949975	      0.85693905	      0.91858877	      0.73954506	     19.47689578	      6.58908112	      6.02993668	     13.97772617	      0.24395734	     -1.74451019	     -0.90409565	     -7.01987937	     -9.78884448	     -7.15117121	     -2.75519515	     27.89251608	      0.48681624	     13.19604152	     -7.86938331	     -7.01987937	    -15.71003692	      5.60817781	     -0.30041574	      4.01337424	    -12.87072170	     -9.62564124	     17.90784479	     85.54215041	     18.51863106	    -11.97220262	      5.87891812	     25.24273226	     84.50151600
      0.18333330	     -0.44490465	     -5.64678451	     -4.38195131	      0.85883985	      0.92159370	      0.74096861	     18.44816933	      7.63255555	      6.47089101	     14.51044419	      0.25325503	     -0.47831938	     -1.46252897	     -7.03380129	     -9.05915158	     -7.97656762	     -2.67154980	     31.09657723	      0.54273766	     10.92615451	     -8.80703939	     -7.03380129	    -15.46725091	      6.55390749	      0.33015630	      3.86149874	    -13.25118483	     -9.09245691	     17.84554128	     85.43334954	     17.63778856	    -11.35139468	      4.91387825	     25.29131709	     84.37595987
      0.20000000	     -0.18615455	     -6.11369832	     -4.76666588	      0.85987831	      0.92467423	      0.74251923	     17.11996986	      8.42406219	      6.89599373	     14.90060234	      0.26006457	      1.12877502	     -1.97186545	     -7.04936380	     -8.05971298	     -8.63037636	     -2.52177624	     34.82676858	      0.60784178	      8.09451976	     -9.92934800	     -7.04936380	    -15.48994239	      7.29128794	      0.76543885	      3.74005066	    -13.60046901	     -8.33807580	     18.20010673	     85.38933465	     16.80163309	    -10.74213236	      3.36529999	     24.89673805	     84.11781775
      0.21666670	      0.36617506	     -6.41263110	     -5.11804921	      0.85999120	      0.92670388	      0.74545399	     15.38218854	      9.01230712	      7.34124185	     15.15137000	      0.26444129	      2.88427844	     -2.35981186	     -7.05873466	     -6.94133132	     -9.20880211	     -2.67239529	     38.93904341	      0.67961452	      5.48067410	    -10.25443048	     -7.05873466	    -15.76259299	      7.83676272	      1.32196146	      3.79659681	    -13.77818267	     -8.10534710	     18.54165045	     85.25991850	     15.99463100	    -10.53695404	      2.84771289	     24.64972409	     83.89550596
      0.23333330	      0.92641416	     -6.52501620	     -5.15818786	      0.85997160	      0.92801186	      0.74945194	     13.48583081	      9.25593062	      7.36267731	     15.02168567	      0.26217787	      4.22034385	     -2.33138557	     -7.10387373	     -5.37973509	     -9.48788893	     -2.21681013	     43.11451760	      0.75249029	      2.15167087	    -12.09131668	     -7.10387373	    -15.91646643	      8.13500392	      1.46918882	      3.95669621	    -14.16168870	     -5.83041428	     18.55635602	     85.31649701	     15.28919773	     -9.75688970	     -1.56718287	     23.47532356	     83.34150349
      0.25000000	      1.62997950	     -6.52219560	     -5.18756608	      0.86076153	      0.92879117	      0.75531802	     11.43963452	      9.43132281	      7.63788291	     14.89025587	      0.25988399	      5.37018734	     -2.54703694	     -7.11043072	     -3.73478076	     -9.82387993	     -2.20621298	     47.19542574	      0.82371557	     -0.26750724	    -12.79951371	     -7.11043072	    -16.29413106	      8.14259130	      1.96764446	      4.17662979	    -14.10507072	     -5.64208466	     18.72468877	     85.25088275	     14.69035174	     -9.81714748	     -1.85162013	     23.16376670	     83.29748989
